<?xml version="1.0" encoding="iso-8859-1"?>
<!-- Generator: Adobe Illustrator 17.1.0, SVG Export Plug-In . SVG Version: 6.00 Build 0)  -->
<!DOCTYPE svg PUBLIC "-//W3C//DTD SVG 1.1//EN" "http://www.w3.org/Graphics/SVG/1.1/DTD/svg11.dtd">
<svg version="1.1" id="Capa_1" xmlns="http://www.w3.org/2000/svg" x="0px"
     y="0px"
     viewBox="0 0 191.308 191.308" style="enable-background:new 0 0 191.308 191.308;" xml:space="preserve">
<path d="M100.654,133.037v7.882l11.802,6.775c2.395,1.375,3.222,4.431,1.847,6.825c-0.924,1.61-2.608,2.512-4.341,2.512
	c-0.844,0-1.7-0.214-2.484-0.665l-11.823-6.788l-11.824,6.788c-0.784,0.451-1.641,0.665-2.484,0.665
	c-1.732,0-3.417-0.901-4.341-2.512c-1.375-2.395-0.548-5.451,1.847-6.825l11.803-6.775v-7.882c-0.369-0.264-0.725-0.55-1.054-0.874
	l-14.379-14.145c-2.508-2.468-3.268-6.166-1.935-9.423s4.469-5.361,7.987-5.361h28.759c3.519,0,6.654,2.104,7.987,5.361
	s0.573,6.955-1.936,9.423l-14.378,14.146C101.378,132.488,101.023,132.774,100.654,133.037z M176.528,61.392
	c5.517,14.341,22.875,65.02,3.198,89.445c-19.04,23.637-50.229,31.811-63.547,35.301c-2.048,0.536-3.816,1-4.895,1.351
	c-9.157,2.979-14.995,3.064-15.631,3.064s-6.475-0.086-15.633-3.064c-1.077-0.351-2.846-0.814-4.894-1.351
	c-13.318-3.49-44.507-11.664-63.547-35.301c-19.677-24.426-2.318-75.104,3.198-89.445C9.432,57.237,0,48.059,0,35.016
	C0,18.045,14.358,0.754,28.451,0.754c0.187,0,0.373,0.003,0.56,0.01c9.311,0.321,17.076,10.051,21.155,16.373
	c3.383-2.174,8.169-4.457,13.344-4.457h64.288c5.175,0,9.961,2.283,13.344,4.457c4.079-6.322,11.845-16.052,21.156-16.373
	c0.188-0.007,0.372-0.01,0.56-0.01c14.092,0,28.45,17.291,28.45,34.262C191.308,48.059,181.876,57.237,176.528,61.392z
	 M62.733,87.506c6.585,0,12.359-4.449,14.043-10.82c0.557-2.104-0.313-4.328-2.15-5.496L59.3,61.442
	c-1.841-1.171-4.224-1.013-5.895,0.386c-3.31,2.772-5.207,6.834-5.207,11.144C48.198,80.986,54.719,87.506,62.733,87.506z
	 M130.642,129.42c0-13.947-6.198-25.626-18.422-34.713c-4.814-3.578-10.543-5.47-16.565-5.47c-6.023,0-11.752,1.892-16.566,5.47
	c-12.224,9.087-18.422,20.766-18.422,34.713c0,21.661,15.075,30.924,27.722,34.88c4.712,1.473,9.82,1.473,14.532,0
	C115.566,160.344,130.642,151.082,130.642,129.42z M143.11,72.971c0-4.31-1.897-8.371-5.207-11.144
	c-1.671-1.399-4.056-1.558-5.895-0.386l-15.326,9.748c-1.837,1.168-2.707,3.392-2.15,5.496c1.684,6.371,7.458,10.82,14.043,10.82
	C136.59,87.506,143.11,80.986,143.11,72.971z"/>
    <g>
</g>
    <g>
</g>
    <g>
</g>
    <g>
</g>
    <g>
</g>
    <g>
</g>
    <g>
</g>
    <g>
</g>
    <g>
</g>
    <g>
</g>
    <g>
</g>
    <g>
</g>
    <g>
</g>
    <g>
</g>
    <g>
</g>
</svg>
